<?xml version="1.0" encoding="UTF-8" standalone="no"?>
<!-- Created with Inkscape (http://www.inkscape.org/) -->

<svg
   xmlns:dc="http://purl.org/dc/elements/1.1/"
   xmlns:cc="http://creativecommons.org/ns#"
   xmlns:rdf="http://www.w3.org/1999/02/22-rdf-syntax-ns#"
   xmlns:svg="http://www.w3.org/2000/svg"
   xmlns="http://www.w3.org/2000/svg"
   xmlns:sodipodi="http://sodipodi.sourceforge.net/DTD/sodipodi-0.dtd"
   xmlns:inkscape="http://www.inkscape.org/namespaces/inkscape"
   id="svg5851"
   version="1.1"
   inkscape:version="0.91 r13725"
   xml:space="preserve"
   width="434.04297"
   height="106.52116"
   viewBox="0 0 434.04297 106.52116"
   sodipodi:docname="d-latch-circuit.svg"><metadata
     id="metadata5857"><rdf:RDF><cc:Work
         rdf:about=""><dc:format>image/svg+xml</dc:format><dc:type
           rdf:resource="http://purl.org/dc/dcmitype/StillImage" /><dc:title></dc:title></cc:Work></rdf:RDF></metadata><defs
     id="defs5855"><clipPath
       clipPathUnits="userSpaceOnUse"
       id="clipPath5867"><path
         d="m 0,0 853.693,0 0,505.0054 L 0,505.0054 0,0 Z"
         id="path5869"
         inkscape:connector-curvature="0" /></clipPath><clipPath
       clipPathUnits="userSpaceOnUse"
       id="clipPath5887"><path
         d="m 0,0 853.693,0 0,505.0054 L 0,505.0054 0,0 Z"
         id="path5889"
         inkscape:connector-curvature="0" /></clipPath></defs><sodipodi:namedview
     pagecolor="#ffffff"
     bordercolor="#666666"
     borderopacity="1"
     objecttolerance="10"
     gridtolerance="10"
     guidetolerance="10"
     inkscape:pageopacity="0"
     inkscape:pageshadow="2"
     inkscape:window-width="1920"
     inkscape:window-height="1104"
     id="namedview5853"
     showgrid="false"
     inkscape:zoom="1.1554868"
     inkscape:cx="338.11638"
     inkscape:cy="90.988998"
     inkscape:window-x="0"
     inkscape:window-y="27"
     inkscape:window-maximized="1"
     inkscape:current-layer="g5859"
     fit-margin-top="0"
     fit-margin-left="0"
     fit-margin-right="0"
     fit-margin-bottom="0" /><g
     id="g5859"
     inkscape:groupmode="layer"
     inkscape:label="workshop"
     transform="matrix(1.25,0,0,-1.25,-272.41899,296.55563)"><g
       id="g5905"
       transform="translate(0.0056,0.0031)" /><g
       id="g5915"
       transform="translate(516.8973,219.1293)"><g
         id="g5917"><g
           id="g5919"><path
             inkscape:connector-curvature="0"
             id="path5921"
             style="fill:none;stroke:#000000;stroke-width:0.79701;stroke-linecap:butt;stroke-linejoin:miter;stroke-miterlimit:10;stroke-dasharray:none;stroke-opacity:1"
             d="m 2.95273,8.85835 c 4.89239,0 8.85837,-3.96597 8.85837,-8.85835 0,-4.89238 -3.96598,-8.85835 -8.85837,-8.85835 l -13.28737,0 0,17.7167 13.28737,0 z M 15.75293,0 c 0,0.97847 -0.79318,1.77167 -1.77167,1.77167 -0.97847,0 -1.77166,-0.7932 -1.77166,-1.77167 0,-0.97847 0.79319,-1.77167 1.77166,-1.77167 0.97849,0 1.77167,0.7932 1.77167,1.77167 z" /><g
             id="g5923"><g
               id="g5925" /></g></g><g
           id="g5927"><path
             inkscape:connector-curvature="0"
             id="path5929"
             style="fill:none;stroke:#000000;stroke-width:0.79701;stroke-linecap:butt;stroke-linejoin:miter;stroke-miterlimit:10;stroke-dasharray:none;stroke-opacity:1"
             d="m 2.95273,-30.91545 c 4.89239,0 8.85837,-3.96597 8.85837,-8.85835 0,-4.8924 -3.96598,-8.85837 -8.85837,-8.85837 l -13.28737,0 0,17.71672 13.28737,0 z m 12.8002,-8.85835 c 0,0.97847 -0.79318,1.77166 -1.77167,1.77166 -0.97847,0 -1.77166,-0.79319 -1.77166,-1.77166 0,-0.97849 0.79319,-1.77169 1.77166,-1.77169 0.97849,0 1.77167,0.7932 1.77167,1.77169 z" /><g
             transform="translate(0,-39.7733)"
             id="g5931"><g
               id="g5933" /><g
               transform="translate(0,39.7733)"
               id="g5935" /></g></g><g
           id="g5937"><g
             id="g5939"><path
               inkscape:connector-curvature="0"
               id="path5941"
               style="fill:#000000;fill-opacity:1;fill-rule:nonzero;stroke:none"
               d="m 27.49013,0 c 0,1.17416 -0.95183,2.12599 -2.12599,2.12599 -1.17418,0 -2.12601,-0.95183 -2.12601,-2.12599 0,-1.17416 0.95183,-2.12599 2.12601,-2.12599 1.17416,0 2.12599,0.95183 2.12599,2.12599 z" /></g><g
             transform="translate(25.3638,0)"
             id="g5943"><g
               id="g5945" /><g
               transform="translate(-25.3638,0)"
               id="g5947" /></g></g><g
           id="g5949"><g
             transform="translate(25.3638,-9.2125)"
             id="g5951"><g
               id="g5953" /><g
               transform="translate(-25.3638,9.2125)"
               id="g5955" /></g></g><g
           id="g5957"><g
             transform="translate(-17.8198,-36.8205)"
             id="g5959"><g
               id="g5961" /><g
               transform="translate(17.8198,36.8205)"
               id="g5963" /></g></g><g
           id="g5965"><g
             transform="translate(-17.8198,-29.7339)"
             id="g5967"><g
               id="g5969" /><g
               transform="translate(17.8198,29.7339)"
               id="g5971" /></g></g><path
           inkscape:connector-curvature="0"
           id="path5973"
           style="fill:none;stroke:#000000;stroke-width:0.79701;stroke-linecap:butt;stroke-linejoin:miter;stroke-miterlimit:10;stroke-dasharray:none;stroke-opacity:1"
           d="m 16.15144,0 7.08669,0 m 2.12601,-2.12599 0,-7.08669 m 0,0 -43.18412,-20.52165 m 0,0 0,-7.0867 m 0,0 7.08669,0" /><g
           id="g5975"><g
             transform="translate(23.2378,-39.7733)"
             id="g5977"><g
               id="g5979" /><g
               transform="translate(-23.2378,39.7733)"
               id="g5981" /></g></g><g
           id="g5983"><g
             transform="translate(23.2378,-32.6867)"
             id="g5985"><g
               id="g5987" /><g
               transform="translate(-23.2378,32.6867)"
               id="g5989" /></g></g><g
           id="g5991"><g
             transform="translate(-17.8198,-2.9527)"
             id="g5993"><g
               id="g5995" /><g
               transform="translate(17.8198,2.9527)"
               id="g5997" /></g></g><g
           id="g5999"><g
             transform="translate(-17.8198,-10.0393)"
             id="g6001"><g
               id="g6003" /><g
               transform="translate(17.8198,10.0393)"
               id="g6005" /></g></g><path
           inkscape:connector-curvature="0"
           id="path6007"
           style="fill:none;stroke:#000000;stroke-width:0.79701;stroke-linecap:butt;stroke-linejoin:miter;stroke-miterlimit:10;stroke-dasharray:none;stroke-opacity:1"
           d="m 16.15144,-39.7738 7.08669,0 m 0,0 0,7.08668 m 0,0 -41.05811,22.64765 m 0,0 0,7.0867 m 0,0 7.08669,0" /><g
           id="g6009"><path
             inkscape:connector-curvature="0"
             id="path6011"
             style="fill:none;stroke:#000000;stroke-width:0.79701;stroke-linecap:butt;stroke-linejoin:miter;stroke-miterlimit:10;stroke-dasharray:none;stroke-opacity:1"
             d="m -55.42366,11.81114 c 4.89239,0 8.85837,-3.96597 8.85837,-8.85837 0,-4.89236 -3.96598,-8.85833 -8.85837,-8.85833 l -13.28738,0 0,17.7167 13.28738,0 z m 12.8002,-8.85837 c 0,0.97849 -0.79318,1.77167 -1.77167,1.77167 -0.97847,0 -1.77167,-0.79318 -1.77167,-1.77167 0,-0.97847 0.7932,-1.77167 1.77167,-1.77167 0.97849,0 1.77167,0.7932 1.77167,1.77167 z" /><g
             transform="translate(-58.3757,2.9528)"
             id="g6013"><g
               id="g6015" /><g
               transform="translate(58.3757,-2.9528)"
               id="g6017" /></g></g><path
           inkscape:connector-curvature="0"
           id="path6019"
           style="fill:none;stroke:#000000;stroke-width:0.79701;stroke-linecap:butt;stroke-linejoin:miter;stroke-miterlimit:10;stroke-dasharray:none;stroke-opacity:1"
           d="m -42.22495,2.95277 31.49166,0" /><g
           id="g6021"><path
             inkscape:connector-curvature="0"
             id="path6023"
             style="fill:none;stroke:#000000;stroke-width:0.79701;stroke-linecap:butt;stroke-linejoin:miter;stroke-miterlimit:10;stroke-dasharray:none;stroke-opacity:1"
             d="m -55.42366,-33.86824 c 4.89239,0 8.85837,-3.96596 8.85837,-8.85836 0,-4.89239 -3.96598,-8.85836 -8.85837,-8.85836 l -13.28738,0 0,17.71672 13.28738,0 z m 12.8002,-8.85836 c 0,0.97848 -0.79318,1.77167 -1.77167,1.77167 -0.97847,0 -1.77167,-0.79319 -1.77167,-1.77167 0,-0.97848 0.7932,-1.77166 1.77167,-1.77166 0.97849,0 1.77167,0.79318 1.77167,1.77166 z" /><g
             transform="translate(-58.3757,-42.726)"
             id="g6025"><g
               id="g6027" /><g
               transform="translate(58.3757,42.726)"
               id="g6029" /></g></g><path
           inkscape:connector-curvature="0"
           id="path6031"
           style="fill:none;stroke:#000000;stroke-width:0.79701;stroke-linecap:butt;stroke-linejoin:miter;stroke-miterlimit:10;stroke-dasharray:none;stroke-opacity:1"
           d="m -42.22495,-42.7266 31.49166,0" /><g
           id="g6033"><g
             id="g6035"><path
               inkscape:connector-curvature="0"
               id="path6037"
               style="fill:#000000;fill-opacity:1;fill-rule:nonzero;stroke:none"
               d="m -30.88626,2.95277 c 0,1.17418 -0.95183,2.12601 -2.12599,2.12601 -1.17418,0 -2.12601,-0.95183 -2.12601,-2.12601 0,-1.17416 0.95183,-2.12599 2.12601,-2.12599 1.17416,0 2.12599,0.95183 2.12599,2.12599 z" /></g><g
             transform="translate(-33.0118,2.9528)"
             id="g6039"><g
               id="g6041" /><g
               transform="translate(33.0118,-2.9528)"
               id="g6043" /></g></g><g
           id="g6045"><g
             transform="translate(-33.0118,-6.2598)"
             id="g6047"><g
               id="g6049" /><g
               transform="translate(33.0118,6.2598)"
               id="g6051" /></g></g><g
           id="g6053"><g
             transform="translate(-76.1954,-39.7733)"
             id="g6055"><g
               id="g6057" /><g
               transform="translate(76.1954,39.7733)"
               id="g6059" /></g></g><g
           id="g6061"><g
             transform="translate(-76.1954,-32.6867)"
             id="g6063"><g
               id="g6065" /><g
               transform="translate(76.1954,32.6867)"
               id="g6067" /></g></g><path
           inkscape:connector-curvature="0"
           id="path6069"
           style="fill:none;stroke:#000000;stroke-width:0.79701;stroke-linecap:butt;stroke-linejoin:miter;stroke-miterlimit:10;stroke-dasharray:none;stroke-opacity:1"
           d="m -42.22495,2.95277 7.08669,0 m 2.12601,-2.12599 0,-7.08667 m 0,0 -43.18413,-26.42723 m 0,0 0,-7.08668 m 0,0 7.08668,0" /><g
           id="g6071"><path
             inkscape:connector-curvature="0"
             id="path6073"
             style="fill:none;stroke:#000000;stroke-width:0.79701;stroke-linecap:butt;stroke-linejoin:miter;stroke-miterlimit:10;stroke-dasharray:none;stroke-opacity:1"
             d="m -142.14688,14.76393 c 4.89239,0 8.85835,-3.96597 8.85835,-8.85837 0,-4.89239 -3.96596,-8.85833 -8.85835,-8.85833 l -13.2874,0 0,17.7167 13.2874,0 z m 12.8002,-8.85837 c 0,0.97849 -0.7932,1.77167 -1.77167,1.77167 -0.97847,0 -1.77166,-0.79318 -1.77166,-1.77167 0,-0.97846 0.79319,-1.77166 1.77166,-1.77166 0.97847,0 1.77167,0.7932 1.77167,1.77166 z" /><g
             transform="translate(-145.0978,5.9055)"
             id="g6075"><g
               id="g6077" /><g
               transform="translate(145.0978,-5.9055)"
               id="g6079" /></g></g><g
           id="g6081"><path
             inkscape:connector-curvature="0"
             id="path6083"
             style="fill:none;stroke:#000000;stroke-width:0.79701;stroke-linecap:butt;stroke-linejoin:miter;stroke-miterlimit:10;stroke-dasharray:none;stroke-opacity:1"
             d="m -142.14688,-25.00987 c 4.89239,0 8.85835,-3.96598 8.85835,-8.85837 0,-4.8924 -3.96596,-8.85836 -8.85835,-8.85836 l -13.2874,0 0,17.71673 13.2874,0 z m 12.8002,-8.85837 c 0,0.97848 -0.7932,1.77167 -1.77167,1.77167 -0.97847,0 -1.77166,-0.79319 -1.77166,-1.77167 0,-0.97847 0.79319,-1.77167 1.77166,-1.77167 0.97847,0 1.77167,0.7932 1.77167,1.77167 z" /><g
             transform="translate(-145.0978,-33.8678)"
             id="g6085"><g
               id="g6087" /><g
               transform="translate(145.0978,33.8678)"
               id="g6089" /></g></g><g
           id="g6091"><g
             id="g6093"><path
               inkscape:connector-curvature="0"
               id="path6095"
               style="fill:#000000;fill-opacity:1;fill-rule:nonzero;stroke:none"
               d="m -117.6095,5.90556 c 0,1.17418 -0.95181,2.126 -2.12599,2.126 -1.17416,0 -2.12599,-0.95182 -2.12599,-2.126 0,-1.17416 0.95183,-2.12599 2.12599,-2.12599 1.17418,0 2.12599,0.95183 2.12599,2.12599 z" /></g><g
             transform="translate(-119.734,5.9055)"
             id="g6097"><g
               id="g6099" /><g
               transform="translate(119.734,-5.9055)"
               id="g6101" /></g></g><g
           id="g6103"><g
             transform="translate(-119.734,-3.307)"
             id="g6105"><g
               id="g6107" /><g
               transform="translate(119.734,3.307)"
               id="g6109" /></g></g><g
           id="g6111"><g
             transform="translate(-162.9175,-30.915)"
             id="g6113"><g
               id="g6115" /><g
               transform="translate(162.9175,30.915)"
               id="g6117" /></g></g><g
           id="g6119"><g
             transform="translate(-162.9175,-23.8284)"
             id="g6121"><g
               id="g6123" /><g
               transform="translate(162.9175,23.8284)"
               id="g6125" /></g></g><path
           inkscape:connector-curvature="0"
           id="path6127"
           style="fill:none;stroke:#000000;stroke-width:0.79701;stroke-linecap:butt;stroke-linejoin:miter;stroke-miterlimit:10;stroke-dasharray:none;stroke-opacity:1"
           d="m -128.94818,5.90556 7.0867,0 m 2.12599,-2.12599 0,-7.08668 m 0,0 -43.18413,-20.52166 m 0,0 0,-7.08668 m 0,0 7.0867,0" /><g
           id="g6129"><g
             transform="translate(-121.8599,-33.8678)"
             id="g6131"><g
               id="g6133" /><g
               transform="translate(121.8599,33.8678)"
               id="g6135" /></g></g><g
           id="g6137"><g
             transform="translate(-121.8599,-26.7812)"
             id="g6139"><g
               id="g6141" /><g
               transform="translate(121.8599,26.7812)"
               id="g6143" /></g></g><g
           id="g6145"><g
             transform="translate(-162.9175,2.9528)"
             id="g6147"><g
               id="g6149" /><g
               transform="translate(162.9175,-2.9528)"
               id="g6151" /></g></g><g
           id="g6153"><g
             transform="translate(-162.9175,-4.1338)"
             id="g6155"><g
               id="g6157" /><g
               transform="translate(162.9175,4.1338)"
               id="g6159" /></g></g><path
           inkscape:connector-curvature="0"
           id="path6161"
           style="fill:none;stroke:#000000;stroke-width:0.79701;stroke-linecap:butt;stroke-linejoin:miter;stroke-miterlimit:10;stroke-dasharray:none;stroke-opacity:1"
           d="m -128.94818,-33.86824 7.0867,0 m 0,0 0,7.0867 m 0,0 -41.05814,22.64764 m 0,0 0,7.08667 m 0,0 7.0867,0" /><g
           id="g6163"><path
             inkscape:connector-curvature="0"
             id="path6165"
             style="fill:none;stroke:#000000;stroke-width:0.79701;stroke-linecap:butt;stroke-linejoin:miter;stroke-miterlimit:10;stroke-dasharray:none;stroke-opacity:1"
             d="m -200.52328,17.7167 c 4.89239,0 8.85836,-3.96595 8.85836,-8.85835 0,-4.89239 -3.96597,-8.85835 -8.85836,-8.85835 l -13.2874,0 0,17.7167 13.2874,0 z m 12.8002,-8.85835 c 0,0.97847 -0.7932,1.77167 -1.77167,1.77167 -0.97847,0 -1.77167,-0.7932 -1.77167,-1.77167 0,-0.97847 0.7932,-1.77166 1.77167,-1.77166 0.97847,0 1.77167,0.79319 1.77167,1.77166 z" /><g
             transform="translate(-203.4734,8.8583)"
             id="g6167"><g
               id="g6169" /><g
               transform="translate(203.4734,-8.8583)"
               id="g6171" /></g></g><path
           inkscape:connector-curvature="0"
           id="path6173"
           style="fill:none;stroke:#000000;stroke-width:0.79701;stroke-linecap:butt;stroke-linejoin:miter;stroke-miterlimit:10;stroke-dasharray:none;stroke-opacity:1"
           d="m -187.32457,8.85835 31.49165,0" /><g
           id="g6175"><path
             inkscape:connector-curvature="0"
             id="path6177"
             style="fill:none;stroke:#000000;stroke-width:0.79701;stroke-linecap:butt;stroke-linejoin:miter;stroke-miterlimit:10;stroke-dasharray:none;stroke-opacity:1"
             d="m -200.52328,-27.96266 c 4.89239,0 8.85836,-3.96597 8.85836,-8.85837 0,-4.89238 -3.96597,-8.85835 -8.85836,-8.85835 l -13.2874,0 0,17.71672 13.2874,0 z m 12.8002,-8.85837 c 0,0.97849 -0.7932,1.77168 -1.77167,1.77168 -0.97847,0 -1.77167,-0.79319 -1.77167,-1.77168 0,-0.97847 0.7932,-1.77167 1.77167,-1.77167 0.97847,0 1.77167,0.7932 1.77167,1.77167 z" /><g
             transform="translate(-203.4734,-36.8205)"
             id="g6179"><g
               id="g6181" /><g
               transform="translate(203.4734,36.8205)"
               id="g6183" /></g></g><path
           inkscape:connector-curvature="0"
           id="path6185"
           style="fill:none;stroke:#000000;stroke-width:0.79701;stroke-linecap:butt;stroke-linejoin:miter;stroke-miterlimit:10;stroke-dasharray:none;stroke-opacity:1"
           d="m -187.32457,-36.82103 31.49165,0" /><g
           id="g6187"><g
             id="g6189"><path
               inkscape:connector-curvature="0"
               id="path6191"
               style="fill:#000000;fill-opacity:1;fill-rule:nonzero;stroke:none"
               d="m -175.98589,8.85835 c 0,1.17417 -0.95182,2.12599 -2.12601,2.12599 -1.17416,0 -2.12598,-0.95182 -2.12598,-2.12599 0,-1.17416 0.95182,-2.12599 2.12598,-2.12599 1.17419,0 2.12601,0.95183 2.12601,2.12599 z" /></g><g
             transform="translate(-178.1096,8.8583)"
             id="g6193"><g
               id="g6195" /><g
               transform="translate(178.1096,-8.8583)"
               id="g6197" /></g></g><g
           id="g6199"><g
             transform="translate(-178.1096,-0.3543)"
             id="g6201"><g
               id="g6203" /><g
               transform="translate(178.1096,0.3543)"
               id="g6205" /></g></g><g
           id="g6207"><g
             transform="translate(-221.2932,-33.8678)"
             id="g6209"><g
               id="g6211" /><g
               transform="translate(221.2932,33.8678)"
               id="g6213" /></g></g><g
           id="g6215"><g
             transform="translate(-221.2932,-26.7812)"
             id="g6217"><g
               id="g6219" /><g
               transform="translate(221.2932,26.7812)"
               id="g6221" /></g></g><path
           inkscape:connector-curvature="0"
           id="path6223"
           style="fill:none;stroke:#000000;stroke-width:0.79701;stroke-linecap:butt;stroke-linejoin:miter;stroke-miterlimit:10;stroke-dasharray:none;stroke-opacity:1"
           d="m -187.32457,8.85835 7.08669,0 m 2.12598,-2.12599 0,-7.08668 m 0,0 -43.1841,-26.42722 m 0,0 0,-7.0867 m 0,0 7.08668,0" /><path
           inkscape:connector-curvature="0"
           id="path6225"
           style="fill:none;stroke:#000000;stroke-width:0.79701;stroke-linecap:butt;stroke-linejoin:miter;stroke-miterlimit:10;stroke-dasharray:none;stroke-opacity:1"
           d="m -117.6095,5.90556 48.4998,0" /><g
           id="g6227"><g
             transform="translate(39.7564,-3.9767)"
             id="g6229"><g
               id="g6231"><g
                 transform="translate(-556.6537,-215.1526)"
                 id="g6233"><text
                   id="text6235"
                   style="font-variant:normal;font-weight:normal;font-size:11.47692013px;font-family:'TeX Gyre Heros';-inkscape-font-specification:TeXGyreHeros-Regular;writing-mode:lr-tb;fill:#000000;fill-opacity:1;fill-rule:nonzero;stroke:none"
                   transform="matrix(1,0,0,-1,556.6537,215.1526)"><tspan
                     id="tspan6237"
                     y="0"
                     x="0">Q</tspan></text>
<g
                   transform="translate(556.6537,215.1526)"
                   id="g6239" /></g></g><g
               transform="translate(-39.7564,3.9767)"
               id="g6241" /></g></g><path
           inkscape:connector-curvature="0"
           id="path6243"
           style="fill:none;stroke:#000000;stroke-width:0.79701;stroke-linecap:butt;stroke-linejoin:miter;stroke-miterlimit:10;stroke-dasharray:none;stroke-opacity:1"
           d="m 27.49013,0 7.08668,0" /><g
           id="g6245"><g
             id="g6247"><path
               inkscape:connector-curvature="0"
               id="path6249"
               style="fill:#000000;fill-opacity:1;fill-rule:nonzero;stroke:none"
               d="m -87.5351,-45.67938 c 0,1.17416 -0.95182,2.12599 -2.12599,2.12599 -1.17418,0 -2.12601,-0.95183 -2.12601,-2.12599 0,-1.17418 0.95183,-2.12599 2.12601,-2.12599 1.17417,0 2.12599,0.95181 2.12599,2.12599 z" /></g><g
             transform="translate(-89.6599,-45.6788)"
             id="g6251"><g
               id="g6253" /><g
               transform="translate(89.6599,45.6788)"
               id="g6255" /></g></g><g
           id="g6257"><g
             transform="translate(-89.6599,-54.8913)"
             id="g6259"><g
               id="g6261" /><g
               transform="translate(89.6599,54.8913)"
               id="g6263" /></g></g><g
           id="g6265"><path
             inkscape:connector-curvature="0"
             id="path6267"
             style="fill:none;stroke:#000000;stroke-width:0.79701;stroke-linecap:butt;stroke-linejoin:miter;stroke-miterlimit:10;stroke-dasharray:none;stroke-opacity:1"
             d="m -106.00465,-46.0337 c 4.89239,0 8.85836,-3.96598 8.85836,-8.85837 0,-4.8924 -3.96597,-8.85836 -8.85836,-8.85836 l -13.28739,0 0,17.71673 13.28739,0 z m 12.8002,-8.85837 c 0,0.97848 -0.79318,1.77167 -1.77167,1.77167 -0.97847,0 -1.77167,-0.79319 -1.77167,-1.77167 0,-0.97847 0.7932,-1.77167 1.77167,-1.77167 0.97849,0 1.77167,0.7932 1.77167,1.77167 z" /><g
             transform="translate(-108.956,-54.8913)"
             id="g6269"><g
               id="g6271" /><g
               transform="translate(108.956,54.8913)"
               id="g6273" /></g></g><path
           inkscape:connector-curvature="0"
           id="path6275"
           style="fill:none;stroke:#000000;stroke-width:0.79701;stroke-linecap:butt;stroke-linejoin:miter;stroke-miterlimit:10;stroke-dasharray:none;stroke-opacity:1"
           d="m -92.80594,-54.89207 3.14485,0 m 0,0 0,7.0867 m 2.12599,2.12599 18.4254,0" /><g
           id="g6277"><g
             id="g6279"><path
               inkscape:connector-curvature="0"
               id="path6281"
               style="fill:#000000;fill-opacity:1;fill-rule:nonzero;stroke:none"
               d="m -126.77737,-57.84486 c 0,1.17418 -0.95183,2.126 -2.12601,2.126 -1.17417,0 -2.12599,-0.95182 -2.12599,-2.126 0,-1.17417 0.95182,-2.126 2.12599,-2.126 1.17418,0 2.12601,0.95183 2.12601,2.126 z" /></g><g
             transform="translate(-128.9017,-57.8441)"
             id="g6283"><g
               id="g6285" /><g
               transform="translate(128.9017,57.8441)"
               id="g6287" /></g></g><path
           inkscape:connector-curvature="0"
           id="path6289"
           style="fill:none;stroke:#000000;stroke-width:0.79701;stroke-linecap:butt;stroke-linejoin:miter;stroke-miterlimit:10;stroke-dasharray:none;stroke-opacity:1"
           d="m -119.69069,-57.84486 -7.08668,0 m -2.12601,2.126 0,3.77957 9.21269,0" /><path
           inkscape:connector-curvature="0"
           id="path6291"
           style="fill:none;stroke:#000000;stroke-width:0.79701;stroke-linecap:butt;stroke-linejoin:miter;stroke-miterlimit:10;stroke-dasharray:none;stroke-opacity:1"
           d="m -89.66109,-43.55339 0,43.55339 20.55139,0" /><g
           id="g6293"><g
             id="g6295"><path
               inkscape:connector-curvature="0"
               id="path6297"
               style="fill:#000000;fill-opacity:1;fill-rule:nonzero;stroke:none"
               d="m -233.3434,-39.7738 c 0,1.17416 -0.95183,2.12599 -2.12599,2.12599 -1.17418,0 -2.12601,-0.95183 -2.12601,-2.12599 0,-1.17418 0.95183,-2.12601 2.12601,-2.12601 1.17416,0 2.12599,0.95183 2.12599,2.12601 z" /></g><g
             transform="translate(-235.4664,-39.7733)"
             id="g6299"><g
               id="g6301" /><g
               transform="translate(235.4664,39.7733)"
               id="g6303" /></g></g><g
           id="g6305"><g
             transform="translate(-235.4664,5.9055)"
             id="g6307"><g
               id="g6309" /><g
               transform="translate(235.4664,-5.9055)"
               id="g6311" /></g></g><g
           id="g6313"><g
             id="g6315"><path
               inkscape:connector-curvature="0"
               id="path6317"
               style="fill:#000000;fill-opacity:1;fill-rule:nonzero;stroke:none"
               d="m -233.3434,-57.84486 c 0,1.17418 -0.95183,2.126 -2.12599,2.126 -1.17418,0 -2.12601,-0.95182 -2.12601,-2.126 0,-1.17417 0.95183,-2.126 2.12601,-2.126 1.17416,0 2.12599,0.95183 2.12599,2.126 z" /></g><g
             transform="translate(-235.4664,-57.8441)"
             id="g6319"><g
               id="g6321" /><g
               transform="translate(235.4664,57.8441)"
               id="g6323" /></g></g><g
           id="g6325"><path
             inkscape:connector-curvature="0"
             id="path6327"
             style="fill:none;stroke:#000000;stroke-width:0.79701;stroke-linecap:butt;stroke-linejoin:miter;stroke-miterlimit:10;stroke-dasharray:none;stroke-opacity:1"
             d="m -253.93895,-48.9865 c 4.8924,0 8.85837,-3.96597 8.85837,-8.85836 0,-4.89238 -3.96597,-8.85836 -8.85837,-8.85836 l -13.2874,0 0,17.71672 13.2874,0 z m 12.8002,-8.85836 c 0,0.97848 -0.7932,1.77166 -1.77167,1.77166 -0.97847,0 -1.77166,-0.79318 -1.77166,-1.77166 0,-0.97847 0.79319,-1.77167 1.77166,-1.77167 0.97847,0 1.77167,0.7932 1.77167,1.77167 z" /><g
             transform="translate(-256.8884,-57.8441)"
             id="g6329"><g
               id="g6331" /><g
               transform="translate(256.8884,57.8441)"
               id="g6333" /></g></g><path
           inkscape:connector-curvature="0"
           id="path6335"
           style="fill:none;stroke:#000000;stroke-width:0.79701;stroke-linecap:butt;stroke-linejoin:miter;stroke-miterlimit:10;stroke-dasharray:none;stroke-opacity:1"
           d="m -240.74023,-57.84486 3.14483,0 m 2.12601,2.126 0,13.81905 m 2.12599,2.12601 19.13408,0" /><path
           inkscape:connector-curvature="0"
           id="path6337"
           style="fill:none;stroke:#000000;stroke-width:0.79701;stroke-linecap:butt;stroke-linejoin:miter;stroke-miterlimit:10;stroke-dasharray:none;stroke-opacity:1"
           d="m -235.46939,-37.64781 -1e-5,43.55337 m 0,0 21.26008,0" /><path
           inkscape:connector-curvature="0"
           id="path6339"
           style="fill:none;stroke:#000000;stroke-width:0.79701;stroke-linecap:butt;stroke-linejoin:miter;stroke-miterlimit:10;stroke-dasharray:none;stroke-opacity:1"
           d="m -233.3434,-57.84486 102.31403,0" /><g
           id="g6341"><g
             id="g6343"><path
               inkscape:connector-curvature="0"
               id="path6345"
               style="fill:#000000;fill-opacity:1;fill-rule:nonzero;stroke:none"
               d="m -274.71167,-60.79764 c 0,1.17417 -0.95183,2.12599 -2.12601,2.12599 -1.17416,0 -2.12599,-0.95182 -2.12599,-2.12599 0,-1.17418 0.95183,-2.12601 2.12599,-2.12601 1.17418,0 2.12601,0.95183 2.12601,2.12601 z" /></g><g
             transform="translate(-276.8341,-60.7968)"
             id="g6347"><g
               id="g6349" /><g
               transform="translate(276.8341,60.7968)"
               id="g6351" /></g></g><path
           inkscape:connector-curvature="0"
           id="path6353"
           style="fill:none;stroke:#000000;stroke-width:0.79701;stroke-linecap:butt;stroke-linejoin:miter;stroke-miterlimit:10;stroke-dasharray:none;stroke-opacity:1"
           d="m -267.62498,-60.79764 -7.08669,0 m -2.12601,2.12599 0,3.77958 9.2127,0" /><g
           id="g6355"><g
             transform="translate(-299.513,-64.9802)"
             id="g6357"><g
               id="g6359"><g
                 transform="translate(-217.3843,-154.1491)"
                 id="g6361"><text
                   id="text6363"
                   style="font-variant:normal;font-weight:normal;font-size:11.47692013px;font-family:'TeX Gyre Heros';-inkscape-font-specification:TeXGyreHeros-Regular;writing-mode:lr-tb;fill:#000000;fill-opacity:1;fill-rule:nonzero;stroke:none"
                   transform="matrix(1,0,0,-1,217.3843,154.1491)"><tspan
                     id="tspan6365"
                     y="0"
                     x="0">C</tspan></text>
<g
                   transform="translate(217.3843,154.1491)"
                   id="g6367" /></g></g><g
               transform="translate(299.513,64.9802)"
               id="g6369" /></g></g><path
           inkscape:connector-curvature="0"
           id="path6371"
           style="fill:none;stroke:#000000;stroke-width:0.79701;stroke-linecap:butt;stroke-linejoin:miter;stroke-miterlimit:10;stroke-dasharray:none;stroke-opacity:1"
           d="m -286.05035,-60.79764 7.08668,0" /><g
           id="g6373"><g
             transform="translate(-299.513,7.6277)"
             id="g6375"><g
               id="g6377"><g
                 transform="translate(-217.3843,-226.757)"
                 id="g6379"><text
                   id="text6381"
                   style="font-variant:normal;font-weight:normal;font-size:11.47692013px;font-family:'TeX Gyre Heros';-inkscape-font-specification:TeXGyreHeros-Regular;writing-mode:lr-tb;fill:#000000;fill-opacity:1;fill-rule:nonzero;stroke:none"
                   transform="matrix(1,0,0,-1,217.3843,226.757)"><tspan
                     id="tspan6383"
                     y="0"
                     x="0">D</tspan></text>
<g
                   transform="translate(217.3843,226.757)"
                   id="g6385" /></g></g><g
               transform="translate(299.513,-7.6277)"
               id="g6387" /></g></g><path
           inkscape:connector-curvature="0"
           id="path6389"
           style="fill:none;stroke:#000000;stroke-width:0.79701;stroke-linecap:butt;stroke-linejoin:miter;stroke-miterlimit:10;stroke-dasharray:none;stroke-opacity:1"
           d="m -286.05035,11.81114 71.84103,0" /></g></g></g></svg>