<?xml version="1.0" encoding="UTF-8" standalone="no"?>
<!-- Created with Inkscape (http://www.inkscape.org/) -->

<svg
   xmlns:dc="http://purl.org/dc/elements/1.1/"
   xmlns:cc="http://creativecommons.org/ns#"
   xmlns:rdf="http://www.w3.org/1999/02/22-rdf-syntax-ns#"
   xmlns:svg="http://www.w3.org/2000/svg"
   xmlns="http://www.w3.org/2000/svg"
   xmlns:sodipodi="http://sodipodi.sourceforge.net/DTD/sodipodi-0.dtd"
   xmlns:inkscape="http://www.inkscape.org/namespaces/inkscape"
   id="svg3355"
   version="1.1"
   inkscape:version="0.91 r13725"
   xml:space="preserve"
   width="286.27649"
   height="206.78978"
   viewBox="0 0 286.27649 206.78978"
   sodipodi:docname="nand-circuit.svg"><metadata
     id="metadata3361"><rdf:RDF><cc:Work
         rdf:about=""><dc:format>image/svg+xml</dc:format><dc:type
           rdf:resource="http://purl.org/dc/dcmitype/StillImage" /><dc:title></dc:title></cc:Work></rdf:RDF></metadata><defs
     id="defs3359"><clipPath
       clipPathUnits="userSpaceOnUse"
       id="clipPath3371"><path
         d="m 0,0 853.693,0 0,505.0054 L 0,505.0054 0,0 Z"
         id="path3373"
         inkscape:connector-curvature="0" /></clipPath><clipPath
       clipPathUnits="userSpaceOnUse"
       id="clipPath3391"><path
         d="m 0,0 853.693,0 0,505.0054 L 0,505.0054 0,0 Z"
         id="path3393"
         inkscape:connector-curvature="0" /></clipPath></defs><sodipodi:namedview
     pagecolor="#ffffff"
     bordercolor="#666666"
     borderopacity="1"
     objecttolerance="10"
     gridtolerance="10"
     guidetolerance="10"
     inkscape:pageopacity="0"
     inkscape:pageshadow="2"
     inkscape:window-width="1920"
     inkscape:window-height="1104"
     id="namedview3357"
     showgrid="false"
     fit-margin-top="0"
     fit-margin-left="0"
     fit-margin-right="0"
     fit-margin-bottom="0"
     inkscape:zoom="1.0027463"
     inkscape:cx="316.22325"
     inkscape:cy="107.13157"
     inkscape:window-x="0"
     inkscape:window-y="27"
     inkscape:window-maximized="1"
     inkscape:current-layer="g3363" /><g
     id="g3363"
     inkscape:groupmode="layer"
     inkscape:label="04-vom-transistor-zum-bit-p"
     transform="matrix(1.25,0,0,-1.25,-181.90874,379.85747)"><g
       id="g3459"
       transform="translate(172.0717,129.5379)"><g
         id="g3461"><g
           id="g3463"><path
             inkscape:connector-curvature="0"
             id="path3465"
             style="fill:none;stroke:#000000;stroke-width:0.79701;stroke-linecap:butt;stroke-linejoin:miter;stroke-miterlimit:10;stroke-dasharray:none;stroke-opacity:1"
             d="m 156.89499,120.07545 0,6.49764 -13.64475,0 m 0,3.24866 0,-6.4973 m 13.64475,40.06819 0,-6.49765 -13.64475,0 m 0,3.24864 0,-6.49728 m -16.67715,-27.07326 13.64474,0 0,30.3219 m 3.03241,-11.91229 0,-6.4973 m 13.64475,3.24864 0,15.16095" /><path
             inkscape:connector-curvature="0"
             id="path3467"
             style="fill:none;stroke:#000000;stroke-width:0.79701;stroke-linecap:butt;stroke-linejoin:miter;stroke-miterlimit:10;stroke-dasharray:none;stroke-opacity:1"
             d="m 143.25024,141.73404 8.98227,0" /><g
             transform="translate(152.23251,141.73404)"
             id="g3469"><g
               id="g3471"><path
                 inkscape:connector-curvature="0"
                 id="path3473"
                 style="fill:#000000;fill-opacity:1;fill-rule:nonzero;stroke:none"
                 d="M 4.66248,0 C 3.28098,0.25902 1.0361,1.0361 -0.51805,1.94269 l 0,-3.88538 C 1.0361,-1.0361 3.28098,-0.25902 4.66248,0" /></g></g><g
             transform="translate(141.7322,141.7322)"
             id="g3475"><g
               id="g3477" /><g
               transform="translate(-141.7322,-141.7322)"
               id="g3479" /></g></g><g
           id="g3481"><path
             inkscape:connector-curvature="0"
             id="path3483"
             style="fill:none;stroke:#000000;stroke-width:0.79701;stroke-linecap:butt;stroke-linejoin:miter;stroke-miterlimit:10;stroke-dasharray:none;stroke-opacity:1"
             d="m 71.85455,120.07545 0,6.49764 -13.64474,0 m 0,3.24866 0,-6.4973 m 13.64474,40.06819 0,-6.49765 -13.64474,0 m 0,3.24864 0,-6.49728 m -16.67714,-27.07326 13.64474,0 0,30.3219 m 3.0324,-11.91229 0,-6.4973 m 13.64474,3.24864 0,15.16095" /><path
             inkscape:connector-curvature="0"
             id="path3485"
             style="fill:none;stroke:#000000;stroke-width:0.79701;stroke-linecap:butt;stroke-linejoin:miter;stroke-miterlimit:10;stroke-dasharray:none;stroke-opacity:1"
             d="m 58.20981,141.73404 8.98227,0" /><g
             transform="translate(67.19208,141.73404)"
             id="g3487"><g
               id="g3489"><path
                 inkscape:connector-curvature="0"
                 id="path3491"
                 style="fill:#000000;fill-opacity:1;fill-rule:nonzero;stroke:none"
                 d="M 4.66248,0 C 3.28098,0.25902 1.0361,1.0361 -0.51805,1.94269 l 0,-3.88538 C 1.0361,-1.0361 3.28098,-0.25902 4.66248,0" /></g></g><g
             transform="translate(56.6929,141.7322)"
             id="g3493"><g
               id="g3495" /><g
               transform="translate(-56.6929,-141.7322)"
               id="g3497" /></g></g><g
           id="g3499"><path
             inkscape:connector-curvature="0"
             id="path3501"
             style="fill:none;stroke:#000000;stroke-width:0.79701;stroke-linecap:butt;stroke-linejoin:miter;stroke-miterlimit:10;stroke-dasharray:none;stroke-opacity:1"
             d="m 120.07545,13.18585 6.49764,0 0,13.64475 m 3.24866,0 -6.4973,0 m 40.06819,-13.64475 -6.49765,0 0,13.64475 m 3.24864,0 -6.49728,0 m -27.07326,16.67715 0,-13.64475 30.3219,0 m -11.91229,-3.0324 -6.4973,0" /><path
             inkscape:connector-curvature="0"
             id="path3503"
             style="fill:none;stroke:#000000;stroke-width:0.79701;stroke-linecap:butt;stroke-linejoin:miter;stroke-miterlimit:10;stroke-dasharray:none;stroke-opacity:1"
             d="m 126.57309,13.18585 15.16095,0 0,8.98227" /><g
             transform="matrix(0,1,-1,0,141.73404,22.16812)"
             id="g3505"><g
               id="g3507"><path
                 inkscape:connector-curvature="0"
                 id="path3509"
                 style="fill:#000000;fill-opacity:1;fill-rule:nonzero;stroke:none"
                 d="M 4.66248,0 C 3.28098,0.25902 1.0361,1.0361 -0.51805,1.94269 l 0,-3.88538 C 1.0361,-1.0361 3.28098,-0.25902 4.66248,0" /></g></g><g
             transform="matrix(0,-1,1,0,141.7322,28.3464)"
             id="g3511"><g
               id="g3513" /><g
               transform="translate(-141.7322,-28.3464)"
               id="g3515" /></g></g><g
           id="g3517"><path
             inkscape:connector-curvature="0"
             id="path3519"
             style="fill:none;stroke:#000000;stroke-width:0.79701;stroke-linecap:butt;stroke-linejoin:miter;stroke-miterlimit:10;stroke-dasharray:none;stroke-opacity:1"
             d="m 35.03502,13.18585 6.49765,0 0,13.64475 m 3.24864,0 -6.4973,0 m 40.06819,-13.64475 -6.49765,0 0,13.64475 m 3.24866,0 -6.4973,0 m -27.07324,16.67715 0,-13.64475 30.32188,0 m -11.91229,-3.0324 -6.4973,0" /><path
             inkscape:connector-curvature="0"
             id="path3521"
             style="fill:none;stroke:#000000;stroke-width:0.79701;stroke-linecap:butt;stroke-linejoin:miter;stroke-miterlimit:10;stroke-dasharray:none;stroke-opacity:1"
             d="m 41.53267,13.18585 15.16095,0 0,8.98227" /><g
             transform="matrix(0,1,-1,0,56.69362,22.16812)"
             id="g3523"><g
               id="g3525"><path
                 inkscape:connector-curvature="0"
                 id="path3527"
                 style="fill:#000000;fill-opacity:1;fill-rule:nonzero;stroke:none"
                 d="M 4.66248,0 C 3.28098,0.25902 1.0361,1.0361 -0.51805,1.94269 l 0,-3.88538 C 1.0361,-1.0361 3.28098,-0.25902 4.66248,0" /></g></g><g
             transform="matrix(0,-1,1,0,56.6929,28.3464)"
             id="g3529"><g
               id="g3531" /><g
               transform="translate(-56.6929,-28.3464)"
               id="g3533" /></g></g><g
           id="g3535"><g
             id="g3537"><path
               inkscape:connector-curvature="0"
               id="path3539"
               style="fill:#000000;fill-opacity:1;fill-rule:nonzero;stroke:none"
               d="m 43.65866,70.867 c 0,1.17418 -0.95183,2.12601 -2.12599,2.12601 -1.17418,0 -2.12601,-0.95183 -2.12601,-2.12601 0,-1.17416 0.95183,-2.12599 2.12601,-2.12599 1.17416,0 2.12599,0.95183 2.12599,2.12599 z" /></g><g
             transform="translate(41.5322,70.8661)"
             id="g3541"><g
               id="g3543" /><g
               transform="translate(-41.5322,-70.8661)"
               id="g3545" /></g></g><g
           id="g3547"><g
             transform="translate(26.5711,66.6828)"
             id="g3549"><g
               id="g3551"><g
                 transform="translate(-198.6428,-196.2207)"
                 id="g3553"><text
                   id="text3555"
                   style="font-variant:normal;font-weight:normal;font-size:11.47692013px;font-family:'TeX Gyre Heros';-inkscape-font-specification:TeXGyreHeros-Regular;writing-mode:lr-tb;fill:#000000;fill-opacity:1;fill-rule:nonzero;stroke:none"
                   transform="matrix(1,0,0,-1,198.6428,196.2207)"><tspan
                     id="tspan3557"
                     y="0"
                     x="0">A</tspan></text>
<g
                   transform="translate(198.6428,196.2207)"
                   id="g3559" /></g></g><g
               transform="translate(-26.5711,-66.6828)"
               id="g3561" /></g></g><g
           id="g3563"><g
             id="g3565"><path
               inkscape:connector-curvature="0"
               id="path3567"
               style="fill:#000000;fill-opacity:1;fill-rule:nonzero;stroke:none"
               d="m 128.6991,70.867 c 0,1.17418 -0.95183,2.12601 -2.12601,2.12601 -1.17416,0 -2.12599,-0.95183 -2.12599,-2.12601 0,-1.17416 0.95183,-2.12599 2.12599,-2.12599 1.17418,0 2.12601,0.95183 2.12601,2.12599 z" /></g><g
             transform="translate(126.5715,70.8661)"
             id="g3569"><g
               id="g3571" /><g
               transform="translate(-126.5715,-70.8661)"
               id="g3573" /></g></g><g
           id="g3575"><g
             transform="translate(111.6104,66.6828)"
             id="g3577"><g
               id="g3579"><g
                 transform="translate(-283.6821,-196.2207)"
                 id="g3581"><text
                   id="text3583"
                   style="font-variant:normal;font-weight:normal;font-size:11.47692013px;font-family:'TeX Gyre Heros';-inkscape-font-specification:TeXGyreHeros-Regular;writing-mode:lr-tb;fill:#000000;fill-opacity:1;fill-rule:nonzero;stroke:none"
                   transform="matrix(1,0,0,-1,283.6821,196.2207)"><tspan
                     id="tspan3585"
                     y="0"
                     x="0">B</tspan></text>
<g
                   transform="translate(283.6821,196.2207)"
                   id="g3587" /></g></g><g
               transform="translate(-111.6104,-66.6828)"
               id="g3589" /></g></g><g
           id="g3591"><g
             id="g3593"><path
               inkscape:connector-curvature="0"
               id="path3595"
               style="fill:#000000;fill-opacity:1;fill-rule:nonzero;stroke:none"
               d="m 200.55367,99.21382 c 0,1.17417 -0.95183,2.12599 -2.12601,2.12599 -1.17416,0 -2.12599,-0.95182 -2.12599,-2.12599 0,-1.17418 0.95183,-2.12599 2.12599,-2.12599 1.17418,0 2.12601,0.95181 2.12601,2.12599 z" /></g><g
             transform="translate(198.4251,99.2125)"
             id="g3597"><g
               id="g3599" /><g
               transform="translate(-198.4251,-99.2125)"
               id="g3601" /></g></g><g
           id="g3603"><g
             transform="translate(193.9606,107.1383)"
             id="g3605"><g
               id="g3607"><g
                 transform="translate(-366.0323,-236.6762)"
                 id="g3609"><text
                   id="text3611"
                   style="font-variant:normal;font-weight:normal;font-size:11.47692013px;font-family:'TeX Gyre Heros';-inkscape-font-specification:TeXGyreHeros-Regular;writing-mode:lr-tb;fill:#000000;fill-opacity:1;fill-rule:nonzero;stroke:none"
                   transform="matrix(1,0,0,-1,366.0323,236.6762)"><tspan
                     id="tspan3613"
                     y="0"
                     x="0">Q</tspan></text>
<g
                   transform="translate(366.0323,236.6762)"
                   id="g3615" /></g></g><g
               transform="translate(-193.9606,-107.1383)"
               id="g3617" /></g></g><g
           id="g3619"><g
             transform="translate(0,13.1857)"
             id="g3621"><g
               id="g3623" /><g
               transform="translate(0,-13.1857)"
               id="g3625" /></g></g><g
           id="g3627"><g
             transform="translate(-21.7664,9.0884)"
             id="g3629"><g
               id="g3631"><g
                 transform="translate(-150.3053,-138.6263)"
                 id="g3633"><text
                   id="text3635"
                   style="font-variant:normal;font-weight:normal;font-size:11.47692013px;font-family:'TeX Gyre Heros';-inkscape-font-specification:TeXGyreHeros-Regular;writing-mode:lr-tb;fill:#000000;fill-opacity:1;fill-rule:nonzero;stroke:none"
                   transform="matrix(1,0,0,-1,150.3053,138.6263)"><tspan
                     id="tspan3637"
                     sodipodi:role="line"
                     y="0"
                     x="0 8.9290438">0V</tspan></text>
<g
                   transform="translate(150.3053,138.6263)"
                   id="g3639" /></g></g><g
               transform="translate(21.7664,-9.0884)"
               id="g3641" /></g></g><g
           id="g3643"><g
             id="g3645"><path
               inkscape:connector-curvature="0"
               id="path3647"
               style="fill:#000000;fill-opacity:1;fill-rule:nonzero;stroke:none"
               d="m 73.98056,170.08086 c 0,1.17416 -0.95183,2.12599 -2.12601,2.12599 -1.17416,0 -2.12599,-0.95183 -2.12599,-2.12599 0,-1.17418 0.95183,-2.12601 2.12599,-2.12601 1.17418,0 2.12601,0.95183 2.12601,2.12601 z" /></g><g
             transform="translate(71.8537,170.0787)"
             id="g3649"><g
               id="g3651" /><g
               transform="translate(-71.8537,-170.0787)"
               id="g3653" /></g></g><g
           id="g3655"><g
             id="g3657"><path
               inkscape:connector-curvature="0"
               id="path3659"
               style="fill:#000000;fill-opacity:1;fill-rule:nonzero;stroke:none"
               d="m 159.02098,99.21382 c 0,1.17417 -0.95183,2.12599 -2.12599,2.12599 -1.17416,0 -2.12599,-0.95182 -2.12599,-2.12599 0,-1.17418 0.95183,-2.12599 2.12599,-2.12599 1.17416,0 2.12599,0.95181 2.12599,2.12599 z" /></g><g
             transform="translate(156.893,99.2125)"
             id="g3661"><g
               id="g3663" /><g
               transform="translate(-156.893,-99.2125)"
               id="g3665" /></g></g><g
           id="g3667"><g
             id="g3669"><path
               inkscape:connector-curvature="0"
               id="path3671"
               style="fill:none;stroke:#000000;stroke-width:0.79701;stroke-linecap:butt;stroke-linejoin:miter;stroke-miterlimit:10;stroke-dasharray:none;stroke-opacity:1"
               d="m -17.71672,95.17667 35.43344,0 m -26.5751,-7.08669 17.71676,0" /><g
               transform="matrix(0,-1,1,0,0,91.6321)"
               id="g3673"><g
                 id="g3675" /><g
                 transform="translate(0,-91.6321)"
                 id="g3677" /></g></g></g><path
           inkscape:connector-curvature="0"
           id="path3679"
           style="fill:none;stroke:#000000;stroke-width:0.79701;stroke-linecap:butt;stroke-linejoin:miter;stroke-miterlimit:10;stroke-dasharray:none;stroke-opacity:1"
           d="m 0,170.08086 0,-74.5057 m 0,-7.88368 9e-5,-74.50563 0,0" /><path
           inkscape:connector-curvature="0"
           id="path3681"
           style="fill:none;stroke:#000000;stroke-width:0.79701;stroke-linecap:butt;stroke-linejoin:miter;stroke-miterlimit:10;stroke-dasharray:none;stroke-opacity:1"
           d="m 0,13.18585 35.03502,0" /><path
           inkscape:connector-curvature="0"
           id="path3683"
           style="fill:none;stroke:#000000;stroke-width:0.79701;stroke-linecap:butt;stroke-linejoin:miter;stroke-miterlimit:10;stroke-dasharray:none;stroke-opacity:1"
           d="m 0,170.08086 69.72856,0 m 2.12599,-2.12601 0,-4.56221" /><path
           inkscape:connector-curvature="0"
           id="path3685"
           style="fill:none;stroke:#000000;stroke-width:0.79701;stroke-linecap:butt;stroke-linejoin:miter;stroke-miterlimit:10;stroke-dasharray:none;stroke-opacity:1"
           d="m 73.98056,170.08086 82.91443,0 0,-6.68822" /><path
           inkscape:connector-curvature="0"
           id="path3687"
           style="fill:none;stroke:#000000;stroke-width:0.79701;stroke-linecap:butt;stroke-linejoin:miter;stroke-miterlimit:10;stroke-dasharray:none;stroke-opacity:1"
           d="m 126.57309,126.57309 0,-83.06534" /><path
           inkscape:connector-curvature="0"
           id="path3689"
           style="fill:none;stroke:#000000;stroke-width:0.79701;stroke-linecap:butt;stroke-linejoin:miter;stroke-miterlimit:10;stroke-dasharray:none;stroke-opacity:1"
           d="m 41.53267,126.57309 0,-83.06534" /><path
           inkscape:connector-curvature="0"
           id="path3691"
           style="fill:none;stroke:#000000;stroke-width:0.79701;stroke-linecap:butt;stroke-linejoin:miter;stroke-miterlimit:10;stroke-dasharray:none;stroke-opacity:1"
           d="m 71.85455,120.07545 0,-20.86163 82.91445,0 m 4.25198,0 37.28069,0" /><path
           inkscape:connector-curvature="0"
           id="path3693"
           style="fill:none;stroke:#000000;stroke-width:0.79701;stroke-linecap:butt;stroke-linejoin:miter;stroke-miterlimit:10;stroke-dasharray:none;stroke-opacity:1"
           d="m 156.89499,120.07545 0,-18.73564" /><path
           inkscape:connector-curvature="0"
           id="path3695"
           style="fill:none;stroke:#000000;stroke-width:0.79701;stroke-linecap:butt;stroke-linejoin:miter;stroke-miterlimit:10;stroke-dasharray:none;stroke-opacity:1"
           d="m 163.39264,13.18585 35.03502,0 0,83.90198" /><g
           id="g3697"><g
             transform="translate(0,170.0787)"
             id="g3699"><g
               id="g3701" /><g
               transform="translate(0,-170.0787)"
               id="g3703" /></g></g><g
           id="g3705"><g
             transform="translate(-26.9464,165.9814)"
             id="g3707"><g
               id="g3709"><g
                 transform="translate(-145.1253,-295.5193)"
                 id="g3711"><text
                   id="text3713"
                   style="font-variant:normal;font-weight:normal;font-size:11.47692013px;font-family:'TeX Gyre Heros';-inkscape-font-specification:TeXGyreHeros-Regular;writing-mode:lr-tb;fill:#000000;fill-opacity:1;fill-rule:nonzero;stroke:none"
                   transform="matrix(1,0,0,-1,145.1253,295.5193)"><tspan
                     id="tspan3715"
                     sodipodi:role="line"
                     y="0"
                     x="0 8.9290438">5V</tspan></text>
<g
                   transform="translate(145.1253,295.5193)"
                   id="g3717" /></g></g><g
               transform="translate(26.9464,-165.9814)"
               id="g3719" /></g></g><path
           inkscape:connector-curvature="0"
           id="path3721"
           style="fill:none;stroke:#000000;stroke-width:0.79701;stroke-linecap:butt;stroke-linejoin:miter;stroke-miterlimit:10;stroke-dasharray:none;stroke-opacity:1"
           d="m 78.3522,13.18585 41.72325,0" /></g></g></g></svg>