<?xml version="1.0" encoding="UTF-8" standalone="no"?>
<!-- Generator: Adobe Illustrator 18.1.1, SVG Export Plug-In . SVG Version: 6.00 Build 0)  -->

<svg
   xmlns:dc="http://purl.org/dc/elements/1.1/"
   xmlns:cc="http://creativecommons.org/ns#"
   xmlns:rdf="http://www.w3.org/1999/02/22-rdf-syntax-ns#"
   xmlns:svg="http://www.w3.org/2000/svg"
   xmlns="http://www.w3.org/2000/svg"
   xmlns:sodipodi="http://sodipodi.sourceforge.net/DTD/sodipodi-0.dtd"
   xmlns:inkscape="http://www.inkscape.org/namespaces/inkscape"
   version="1.1"
   id="Ebene_1"
   x="0px"
   y="0px"
   viewBox="0 0 14 15"
   enable-background="new 0 0 14 15"
   xml:space="preserve"
   inkscape:version="0.91 r13725"
   sodipodi:docname="icon_gk_blue.svg"><metadata
     id="metadata15"><rdf:RDF><cc:Work
         rdf:about=""><dc:format>image/svg+xml</dc:format><dc:type
           rdf:resource="http://purl.org/dc/dcmitype/StillImage" /><dc:title></dc:title></cc:Work></rdf:RDF></metadata><defs
     id="defs13" /><sodipodi:namedview
     pagecolor="#ffffff"
     bordercolor="#666666"
     borderopacity="1"
     objecttolerance="10"
     gridtolerance="10"
     guidetolerance="10"
     inkscape:pageopacity="0"
     inkscape:pageshadow="2"
     inkscape:window-width="1920"
     inkscape:window-height="984"
     id="namedview11"
     showgrid="false"
     inkscape:zoom="31.466667"
     inkscape:cx="1.5294729"
     inkscape:cy="7.2029174"
     inkscape:window-x="0"
     inkscape:window-y="27"
     inkscape:window-maximized="1"
     inkscape:current-layer="Ebene_1" /><path
     style="fill:#3348b5;fill-opacity:1;stroke:none"
     inkscape:connector-curvature="0"
     id="path5"
     d="M 7,2.5 0,4.2 0,1.7 7,0 14,1.7 14,4.2 7,2.5 Z M 0,5.9 2.5,5.9 2.5,15 0,15 0,5.9 Z m 5.7,0 2.5,0 0,9.1 -2.5,0 0,-9.1 z m 5.8,0 2.5,0 0,9.1 -2.5,0 0,-9.1 z" /><g
     id="g7"><path
       fill="#FFFFFF"
       d="M27,2.5l-7,1.7V1.7L27,0l7,1.7v2.5L27,2.5z M20,5.9h2.5V15H20V5.9z M25.7,5.9h2.5V15h-2.5V5.9z M31.5,5.9   H34V15h-2.5V5.9z"
       id="path9" /></g></svg>