<?xml version="1.0" encoding="UTF-8"?>
<!-- Generator: Adobe Illustrator 18.1.1, SVG Export Plug-In . SVG Version: 6.00 Build 0)  -->
<!DOCTYPE svg PUBLIC "-//W3C//DTD SVG 1.1//EN" "http://www.w3.org/Graphics/SVG/1.1/DTD/svg11.dtd">
<svg version="1.1" id="Ebene_1" xmlns="http://www.w3.org/2000/svg" xmlns:xlink="http://www.w3.org/1999/xlink" x="0px" y="0px" viewBox="0 0 335 75" enable-background="new 0 0 335 75" xml:space="preserve">
<g>
	<linearGradient id="SVGID_1_" gradientUnits="userSpaceOnUse" x1="167.5" y1="12.8569" x2="167.5" y2="78.7728">
		<stop offset="0" style="stop-color:#FFFFFF"/>
		<stop offset="1" style="stop-color:#E6E6E6"/>
	</linearGradient>
	<rect x="0" fill="url(#SVGID_1_)" width="335" height="75"/>
	<g>
		<g>
			<path fill="#3348B5" d="M42.1,25.5c0.9-2,2.7-2,3.1-2c1.6,0,2.7,1,2.7,2.4c0,1.2-1,2.2-2.2,2.2c-1.2,0-2-0.9-2-2.1     c0-1,0.5-1.5,0.9-1.8c-0.9,0.3-2,0.7-2.5,3.5c-0.2,1.1-0.2,2.2-0.3,3.4c-0.8,5.8-5.4,8-9.5,8c-0.5,0-3-0.2-3.6-0.2     c-1.8,0-3.4,0.6-3.4,2.2c0,1.6,1.7,1.8,2.4,1.8c1.5,0.1,9.1,0.3,10.6,0.8c2.2,0.6,4.1,2.3,4.1,5.3c0,1.8-0.8,3.7-2.2,5.1     c-2.4,2.4-6.4,3-9.2,3c-6.4,0-11.5-2.6-11.5-6.7c0-0.8,0.2-2.1,1.4-3.2c1.3-1.3,2.9-1.6,4.4-1.8c-0.8-0.6-1.7-1.3-1.7-2.8     c0-1.2,0.5-2.2,1.2-2.9c1.2-1.1,2.4-1.3,3.9-1.4c-1.6-0.9-4-2.4-4-6.6c0-4.4,3.6-8.6,9.4-8.6c3.9,0,6,1.9,6.8,3.3     c0.2,0.4,0.4,0.9,0.6,1.3C41.6,26.9,41.7,26.1,42.1,25.5z M21.4,50c0,3.9,5.5,5.8,11,5.8c1.4,0,5-0.1,7.3-2.3     c1-0.9,1.6-2.2,1.6-3.5c0-3.4-3.1-3.5-5.2-3.7c-3.1-0.2-8.7-0.4-9-0.4C24,45.9,21.4,47.1,21.4,50z M27.9,33.3     c0,2.8,1.6,4.9,4,4.9c4.3,0,6.4-6.5,6.4-9.9c0-2.3-0.8-4.8-3.9-4.8C30,23.6,27.9,30.4,27.9,33.3z"/>
			<path fill="#3348B5" d="M57.2,23c-1.2,6.1-1.5,7.7-2.8,13.2c-0.4,1.6-0.6,2.5-0.6,3.5c0,2.4,1.2,3.7,3.5,3.7     c2.5,0,4.2-2.1,5.4-4.1c3.6-5.7,4.7-11.2,5.6-15.4h3.6c-0.4,1.6-0.4,1.8-0.8,3.3l-2.7,13c-0.9,4.6-3.4,17.1-13.9,17.1     c-4.3,0-7.1-2.6-7.1-5.8c0-2.4,1.5-4,3.2-4c1.3,0,2.3,1,2.3,2.2c0,1.3-1,2.3-2.3,2.3c-1.5,0-1.9-1-2.3-1.8c0,0.4-0.1,0.9-0.1,1.3     c0,2.8,2.9,4.9,5.8,4.9c3.6,0,6.2-2.7,7.7-6.1c1.6-3.4,3.4-10.6,4.5-16.5c-3.4,7.9-5.9,10.8-10.2,10.8c-2.8,0-5.6-1.4-5.6-5.1     c0-0.6,0-1.4,0.9-5.1c1.3-5.3,1.4-6,2.1-10.1l-4,0.6l-0.1-0.7L57.2,23z"/>
			<path fill="#3348B5" d="M81.9,23L79.4,35C81.2,30.6,84.4,23,90.2,23c3.3,0,4.8,2.2,4.8,4.6c0,0.7-0.1,1.3-0.3,2l-1.2,5.4     c1.9-4.6,5-11.9,10.6-11.9c4.3,0,5.1,3,5.1,4.6c0,1-0.3,2-0.6,3.3l-2.2,7.8c-0.3,1.1-0.4,1.9-0.4,2.7c0,0.5,0,2,1.5,2     c1.6,0,2.4-2.2,3.2-4.8l0.7,0.1c-0.9,2.7-1.8,5.8-5,5.8c-1.7,0-3.7-1-3.7-4.1c0-1,0.3-2,0.5-2.9l2.3-8.4c0.3-1.4,0.4-1.9,0.4-2.5     c0-0.7-0.2-2.8-2.7-2.8c-3.1,0-8,4.4-11.8,20.1h-3.4l3.1-15c0.2-0.7,0.3-1.4,0.3-2.1c0-2.1-1.2-2.9-2.6-2.9c-0.4,0-2.7,0-5.4,4.1     c-3.5,5.2-5.3,12.2-6.2,15.9H74l4.1-19.8l-4,0.6L74,24.1L81.9,23z"/>
			<g>
				<polygon fill="#3348B5" points="143.9,23 142.4,23 128,35.4 128,23 127,23 127,44 128,44 128,36.7 132.7,32.7 143,44.1       143.1,44 144.4,44 133.5,32     "/>
				<rect x="147" y="23" fill="#3348B5" width="1" height="21"/>
				<path fill="#3348B5" d="M167.5,43.3c-0.1-0.3-0.1-0.7-0.1-1.2c0-0.5-0.1-0.9-0.1-1.3c0-0.4,0-0.8,0-1.1c0-0.8-0.1-1.6-0.2-2.3      c-0.1-0.7-0.3-1.3-0.6-1.8c-0.3-0.5-0.8-0.9-1.3-1.3c-0.4-0.2-0.9-0.4-1.5-0.5c1.2-0.4,2.2-1,2.8-1.8c0.8-0.9,1.2-2.1,1.2-3.4      l0-0.2c0-1.9-0.6-3.3-1.7-4.2c-1.1-0.9-2.7-1.3-4.9-1.3h-9v21h1V34h7.9c1.2,0,2.1,0.3,2.8,0.6c0.7,0.2,1.2,0.7,1.6,1.1      c0.4,0.4,0.6,1,0.7,1.7c0.1,0.7,0.2,1.5,0.2,2.3c0,0.4,0,0.8,0,1.1c0,0.4,0,0.9,0.1,1.3c0,0.5,0.1,0.8,0.1,1.2      c0.1,0.4,0.1,0.5,0.2,0.8l0.1,0h1.2l-0.2-0.2C167.6,43.7,167.6,43.6,167.5,43.3z M166.2,30.7c-0.3,0.6-0.7,1.2-1.3,1.6      c-0.5,0.4-1.1,0.5-1.8,0.7c-0.7,0.2-1.4,0.1-2.2,0.1H153v-9h8.2c1.9,0,3.3,0.4,4.2,1.2c0.8,0.8,1.3,1.9,1.3,3.3      C166.6,29.4,166.5,30.1,166.2,30.7z"/>
				<path fill="#3348B5" d="M188.1,36c-0.2,1.1-0.5,2.1-0.9,3.1c-0.4,1-1,1.8-1.7,2.5c-0.7,0.7-1.5,1.2-2.5,1.6      c-1,0.4-2.1,0.6-3.3,0.6c-1.4,0-2.6-0.3-3.7-0.8c-1.1-0.6-2-1.3-2.7-2.2c-0.7-0.9-1.3-2-1.7-3.2c-0.4-1.2-0.6-2.5-0.6-3.8      c0-1.1,0.2-2.2,0.5-3.4c0.3-1.2,0.8-2.3,1.5-3.4c0.7-1,1.6-1.9,2.8-2.6c1.1-0.7,2.6-1,4.3-1c1.1,0,2.1,0.2,3,0.5      c0.9,0.4,1.7,0.8,2.3,1.4c0.7,0.6,1.2,1.2,1.6,1.9c0.4,0.7,0.6,1.6,0.6,2.4l0,0.4h1l0-0.4c0-0.7-0.2-1.5-0.6-2.3      c-0.4-0.8-0.9-1.6-1.6-2.3c-0.7-0.7-1.6-1.3-2.7-1.8c-1.1-0.5-2.3-0.7-3.7-0.7c-1.8,0-3.4,0.3-4.6,1c-1.3,0.7-2.3,1.6-3.1,2.7      c-0.8,1.1-1.4,2.3-1.7,3.7c-0.4,1.3-0.5,2.7-0.5,3.9c0,1.6,0.2,3.1,0.7,4.4c0.5,1.3,1.1,2.5,2,3.5c0.8,1,1.9,1.9,3.1,2.4      c1.2,0.5,2.5,1,3.9,1h0c1.3,0,2.6-0.4,3.6-0.8c1.1-0.4,2-1.1,2.8-1.9c0.8-0.8,1.4-1.7,1.9-2.8c0.5-1.1,0.8-2.1,1-3.4l0-0.1      L188.1,36L188.1,36z"/>
				<polygon fill="#3348B5" points="207,33 193,33 193,23 192,23 192,44 193,44 193,34 207,34 207,44 208,44 208,23 207,23     "/>
				<polygon fill="#3348B5" points="212,34 225,34 225,33 212,33 212,24 225,24 225,23 211,23 211,44 226,44 226,43 212,43     "/>
				<polygon fill="#3348B5" points="244,42.8 229.9,23 229.9,23 229,23 229,44 230,44 230,24.4 243.9,44.1 243.8,44 245,44 245,23       244,23     "/>
				<polygon fill="#3348B5" points="249,44 250,44 250,34 261,34 261,33 250,33 250,24 263,24 263,23 249,23     "/>
				<polygon fill="#3348B5" points="266,34 279,34 279,33 266,33 266,24 280,24 280,23 265,23 265,44 280,44 280,43 266,43     "/>
				<polygon fill="#3348B5" points="284,23 283,23 283,44 296,44 296,43 284,43     "/>
				<path fill="#3348B5" d="M314.7,28.4c-0.5-1.4-1.3-2.5-2.1-3.3c-0.9-0.8-1.9-1.4-3-1.7c-1.1-0.3-2.2-0.5-3.2-0.5H299v21h6.5      c1.3,0,2.5-0.1,3.7-0.5c1.2-0.4,2.3-1,3.2-1.8c0.9-0.8,1.7-1.9,2.2-3.3c0.6-1.3,0.8-3,0.8-4.9C315.5,31.5,315.3,29.8,314.7,28.4      z M314.6,33.6c0,1.6-0.2,3.1-0.7,4.3c-0.5,1.2-1.1,2.2-1.9,3c-0.8,0.8-1.8,1.2-2.8,1.6c-1.1,0.4-2.2,0.4-3.4,0.4H300V24h6.3      c1,0,2.1,0.1,3,0.4c1,0.3,1.9,0.8,2.6,1.5c0.8,0.7,1.4,1.7,1.9,3C314.3,30.1,314.6,31.7,314.6,33.6z"/>
			</g>
		</g>
		<rect x="118.6" y="10" fill="#3348B5" width="0.7" height="47.1"/>
	</g>
</g>
</svg>